<svg aria-roledescription="flowchart-v2" role="graphics-document document" viewBox="-8 -8 2380.046875 1990.8046875" style="max-width: 2380.046875px;" xmlns="http://www.w3.org/2000/svg" width="100%" id="mermaid-svg-1768821843081-5y5477pba"><style>#mermaid-svg-1768821843081-5y5477pba{font-family:"trebuchet ms",verdana,arial,sans-serif;font-size:16px;fill:#cccccc;}#mermaid-svg-1768821843081-5y5477pba .error-icon{fill:#5a1d1d;}#mermaid-svg-1768821843081-5y5477pba .error-text{fill:#f85149;stroke:#f85149;}#mermaid-svg-1768821843081-5y5477pba .edge-thickness-normal{stroke-width:2px;}#mermaid-svg-1768821843081-5y5477pba .edge-thickness-thick{stroke-width:3.5px;}#mermaid-svg-1768821843081-5y5477pba .edge-pattern-solid{stroke-dasharray:0;}#mermaid-svg-1768821843081-5y5477pba .edge-pattern-dashed{stroke-dasharray:3;}#mermaid-svg-1768821843081-5y5477pba .edge-pattern-dotted{stroke-dasharray:2;}#mermaid-svg-1768821843081-5y5477pba .marker{fill:#9d9d9d;stroke:#9d9d9d;}#mermaid-svg-1768821843081-5y5477pba .marker.cross{stroke:#9d9d9d;}#mermaid-svg-1768821843081-5y5477pba svg{font-family:"trebuchet ms",verdana,arial,sans-serif;font-size:16px;}#mermaid-svg-1768821843081-5y5477pba .label{font-family:"trebuchet ms",verdana,arial,sans-serif;color:#cccccc;}#mermaid-svg-1768821843081-5y5477pba .cluster-label text{fill:#cccccc;}#mermaid-svg-1768821843081-5y5477pba .cluster-label span,#mermaid-svg-1768821843081-5y5477pba p{color:#cccccc;}#mermaid-svg-1768821843081-5y5477pba .label text,#mermaid-svg-1768821843081-5y5477pba span,#mermaid-svg-1768821843081-5y5477pba p{fill:#cccccc;color:#cccccc;}#mermaid-svg-1768821843081-5y5477pba .node rect,#mermaid-svg-1768821843081-5y5477pba .node circle,#mermaid-svg-1768821843081-5y5477pba .node ellipse,#mermaid-svg-1768821843081-5y5477pba .node polygon,#mermaid-svg-1768821843081-5y5477pba .node path{fill:#1f1f1f;stroke:#454545;stroke-width:1px;}#mermaid-svg-1768821843081-5y5477pba .flowchart-label text{text-anchor:middle;}#mermaid-svg-1768821843081-5y5477pba .node .label{text-align:center;}#mermaid-svg-1768821843081-5y5477pba .node.clickable{cursor:pointer;}#mermaid-svg-1768821843081-5y5477pba .arrowheadPath{fill:#e0e0e0;}#mermaid-svg-1768821843081-5y5477pba .edgePath .path{stroke:#9d9d9d;stroke-width:2.0px;}#mermaid-svg-1768821843081-5y5477pba .flowchart-link{stroke:#9d9d9d;fill:none;}#mermaid-svg-1768821843081-5y5477pba .edgeLabel{background-color:#1f1f1f99;text-align:center;}#mermaid-svg-1768821843081-5y5477pba .edgeLabel rect{opacity:0.5;background-color:#1f1f1f99;fill:#1f1f1f99;}#mermaid-svg-1768821843081-5y5477pba .labelBkg{background-color:rgba(31, 31, 31, 0.5);}#mermaid-svg-1768821843081-5y5477pba .cluster rect{fill:#3a3d41;stroke:#454545;stroke-width:1px;}#mermaid-svg-1768821843081-5y5477pba .cluster text{fill:#cccccc;}#mermaid-svg-1768821843081-5y5477pba .cluster span,#mermaid-svg-1768821843081-5y5477pba p{color:#cccccc;}#mermaid-svg-1768821843081-5y5477pba div.mermaidTooltip{position:absolute;text-align:center;max-width:200px;padding:2px;font-family:"trebuchet ms",verdana,arial,sans-serif;font-size:12px;background:#264f78;border:1px solid #454545;border-radius:2px;pointer-events:none;z-index:100;}#mermaid-svg-1768821843081-5y5477pba .flowchartTitleText{text-anchor:middle;font-size:18px;fill:#cccccc;}#mermaid-svg-1768821843081-5y5477pba :root{--mermaid-font-family:"trebuchet ms",verdana,arial,sans-serif;}#mermaid-svg-1768821843081-5y5477pba .startend rect{fill:#f9f!important;stroke:#333!important;stroke-width:2px!important;}#mermaid-svg-1768821843081-5y5477pba .startend polygon{fill:#f9f!important;stroke:#333!important;stroke-width:2px!important;}#mermaid-svg-1768821843081-5y5477pba .startend ellipse{fill:#f9f!important;stroke:#333!important;stroke-width:2px!important;}#mermaid-svg-1768821843081-5y5477pba .startend circle{fill:#f9f!important;stroke:#333!important;stroke-width:2px!important;}#mermaid-svg-1768821843081-5y5477pba .startend path{fill:#f9f!important;stroke:#333!important;stroke-width:2px!important;}#mermaid-svg-1768821843081-5y5477pba .decision rect{fill:#e1f5fe!important;stroke:#01579b!important;stroke-width:2px!important;}#mermaid-svg-1768821843081-5y5477pba .decision polygon{fill:#e1f5fe!important;stroke:#01579b!important;stroke-width:2px!important;}#mermaid-svg-1768821843081-5y5477pba .decision ellipse{fill:#e1f5fe!important;stroke:#01579b!important;stroke-width:2px!important;}#mermaid-svg-1768821843081-5y5477pba .decision circle{fill:#e1f5fe!important;stroke:#01579b!important;stroke-width:2px!important;}#mermaid-svg-1768821843081-5y5477pba .decision path{fill:#e1f5fe!important;stroke:#01579b!important;stroke-width:2px!important;}#mermaid-svg-1768821843081-5y5477pba .process rect{fill:#fff3e0!important;stroke:#e65100!important;stroke-width:2px!important;}#mermaid-svg-1768821843081-5y5477pba .process polygon{fill:#fff3e0!important;stroke:#e65100!important;stroke-width:2px!important;}#mermaid-svg-1768821843081-5y5477pba .process ellipse{fill:#fff3e0!important;stroke:#e65100!important;stroke-width:2px!important;}#mermaid-svg-1768821843081-5y5477pba .process circle{fill:#fff3e0!important;stroke:#e65100!important;stroke-width:2px!important;}#mermaid-svg-1768821843081-5y5477pba .process path{fill:#fff3e0!important;stroke:#e65100!important;stroke-width:2px!important;}#mermaid-svg-1768821843081-5y5477pba .success rect{fill:#e8f5e9!important;stroke:#2e7d32!important;stroke-width:2px!important;}#mermaid-svg-1768821843081-5y5477pba .success polygon{fill:#e8f5e9!important;stroke:#2e7d32!important;stroke-width:2px!important;}#mermaid-svg-1768821843081-5y5477pba .success ellipse{fill:#e8f5e9!important;stroke:#2e7d32!important;stroke-width:2px!important;}#mermaid-svg-1768821843081-5y5477pba .success circle{fill:#e8f5e9!important;stroke:#2e7d32!important;stroke-width:2px!important;}#mermaid-svg-1768821843081-5y5477pba .success path{fill:#e8f5e9!important;stroke:#2e7d32!important;stroke-width:2px!important;}#mermaid-svg-1768821843081-5y5477pba .failure rect{fill:#ffebee!important;stroke:#c62828!important;stroke-width:2px!important;}#mermaid-svg-1768821843081-5y5477pba .failure polygon{fill:#ffebee!important;stroke:#c62828!important;stroke-width:2px!important;}#mermaid-svg-1768821843081-5y5477pba .failure ellipse{fill:#ffebee!important;stroke:#c62828!important;stroke-width:2px!important;}#mermaid-svg-1768821843081-5y5477pba .failure circle{fill:#ffebee!important;stroke:#c62828!important;stroke-width:2px!important;}#mermaid-svg-1768821843081-5y5477pba .failure path{fill:#ffebee!important;stroke:#c62828!important;stroke-width:2px!important;}</style><g><marker orient="auto" markerHeight="12" markerWidth="12" markerUnits="userSpaceOnUse" refY="5" refX="6" viewBox="0 0 10 10" class="marker flowchart" id="mermaid-svg-1768821843081-5y5477pba_flowchart-pointEnd"><path style="stroke-width: 1; stroke-dasharray: 1, 0;" class="arrowMarkerPath" d="M 0 0 L 10 5 L 0 10 z"/></marker><marker orient="auto" markerHeight="12" markerWidth="12" markerUnits="userSpaceOnUse" refY="5" refX="4.5" viewBox="0 0 10 10" class="marker flowchart" id="mermaid-svg-1768821843081-5y5477pba_flowchart-pointStart"><path style="stroke-width: 1; stroke-dasharray: 1, 0;" class="arrowMarkerPath" d="M 0 5 L 10 10 L 10 0 z"/></marker><marker orient="auto" markerHeight="11" markerWidth="11" markerUnits="userSpaceOnUse" refY="5" refX="11" viewBox="0 0 10 10" class="marker flowchart" id="mermaid-svg-1768821843081-5y5477pba_flowchart-circleEnd"><circle style="stroke-width: 1; stroke-dasharray: 1, 0;" class="arrowMarkerPath" r="5" cy="5" cx="5"/></marker><marker orient="auto" markerHeight="11" markerWidth="11" markerUnits="userSpaceOnUse" refY="5" refX="-1" viewBox="0 0 10 10" class="marker flowchart" id="mermaid-svg-1768821843081-5y5477pba_flowchart-circleStart"><circle style="stroke-width: 1; stroke-dasharray: 1, 0;" class="arrowMarkerPath" r="5" cy="5" cx="5"/></marker><marker orient="auto" markerHeight="11" markerWidth="11" markerUnits="userSpaceOnUse" refY="5.2" refX="12" viewBox="0 0 11 11" class="marker cross flowchart" id="mermaid-svg-1768821843081-5y5477pba_flowchart-crossEnd"><path style="stroke-width: 2; stroke-dasharray: 1, 0;" class="arrowMarkerPath" d="M 1,1 l 9,9 M 10,1 l -9,9"/></marker><marker orient="auto" markerHeight="11" markerWidth="11" markerUnits="userSpaceOnUse" refY="5.2" refX="-1" viewBox="0 0 11 11" class="marker cross flowchart" id="mermaid-svg-1768821843081-5y5477pba_flowchart-crossStart"><path style="stroke-width: 2; stroke-dasharray: 1, 0;" class="arrowMarkerPath" d="M 1,1 l 9,9 M 10,1 l -9,9"/></marker><g class="root"><g class="clusters"><g id="T3" class="cluster default flowchart-label"><rect height="1149.2265625" width="576.88671875" y="825.578125" x="0" ry="0" rx="0" style=""/><g transform="translate(288.443359375, 825.578125)" class="cluster-label"><text style=""><tspan class="row" x="0" dy="1em" xml:space="preserve">Tier 3: Large XP</tspan></text></g></g><g id="T2" class="cluster default flowchart-label"><rect height="1149.2265625" width="523.59765625" y="825.578125" x="1294.6640625" ry="0" rx="0" style=""/><g transform="translate(1556.462890625, 825.578125)" class="cluster-label"><text style=""><tspan class="row" x="0" dy="1em" xml:space="preserve">Tier 2: Medium+ XP</tspan></text></g></g><g id="T1" class="cluster default flowchart-label"><rect height="1149.2265625" width="525.78515625" y="825.578125" x="1838.26171875" ry="0" rx="0" style=""/><g transform="translate(2101.154296875, 825.578125)" class="cluster-label"><text style=""><tspan class="row" x="0" dy="1em" xml:space="preserve">Tier 1: Medium XP</tspan></text></g></g><g id="T0" class="cluster default flowchart-label"><rect height="1025.2265625" width="428.23046875" y="825.578125" x="596.88671875" ry="0" rx="0" style=""/><g transform="translate(811.001953125, 825.578125)" class="cluster-label"><text style=""><tspan class="row" x="0" dy="1em" xml:space="preserve">Tier 0: Small XP</tspan></text></g></g></g><g class="edgePaths"><path marker-end="url(#mermaid-svg-1768821843081-5y5477pba_flowchart-pointEnd)" style="fill:none;" class="edge-thickness-normal edge-pattern-solid flowchart-link LS-Start LE-Input" id="L-Start-Input-0" d="M1028.836,32L1028.836,36.167C1028.836,40.333,1028.836,48.667,1028.836,56.117C1028.836,63.567,1028.836,70.133,1028.836,73.417L1028.836,76.7"/><path marker-end="url(#mermaid-svg-1768821843081-5y5477pba_flowchart-pointEnd)" style="fill:none;" class="edge-thickness-normal edge-pattern-solid flowchart-link LS-Input LE-Constraints" id="L-Input-Constraints-0" d="M1028.836,178L1028.836,182.167C1028.836,186.333,1028.836,194.667,1028.902,202.2C1028.968,209.734,1029.1,216.467,1029.166,219.834L1029.232,223.201"/><path marker-end="url(#mermaid-svg-1768821843081-5y5477pba_flowchart-pointEnd)" style="fill:none;" class="edge-thickness-normal edge-pattern-solid flowchart-link LS-Constraints LE-Stop_Global" id="L-Constraints-Stop_Global-0" d="M969.34,446.379L957.413,461.878C945.487,477.377,921.634,508.376,909.708,541.384C897.781,574.392,897.781,609.409,897.781,626.918L897.781,644.427"/><path marker-end="url(#mermaid-svg-1768821843081-5y5477pba_flowchart-pointEnd)" style="fill:none;" class="edge-thickness-normal edge-pattern-solid flowchart-link LS-Constraints LE-Classify" id="L-Constraints-Classify-0" d="M1089.332,446.379L1101.092,461.878C1112.852,477.377,1136.371,508.376,1148.201,528.659C1160.031,548.942,1160.172,558.509,1160.242,563.292L1160.313,568.076"/><path marker-end="url(#mermaid-svg-1768821843081-5y5477pba_flowchart-pointEnd)" style="fill:none;" class="edge-thickness-normal edge-pattern-solid flowchart-link LS-Classify LE-Tier0" id="L-Classify-Tier0-0" d="M1091.951,690.639L1044.237,707.545C996.524,724.452,901.096,758.265,853.382,780.755C805.668,803.245,805.668,814.411,805.668,824.611C805.668,834.811,805.668,844.045,805.668,848.661L805.668,853.278"/><path marker-end="url(#mermaid-svg-1768821843081-5y5477pba_flowchart-pointEnd)" style="fill:none;" class="edge-thickness-normal edge-pattern-solid flowchart-link LS-Classify LE-Tier1" id="L-Classify-Tier1-0" d="M1241.898,677.571L1379.536,696.655C1517.174,715.74,1792.45,753.909,1930.088,778.577C2067.727,803.245,2067.727,814.411,2067.727,824.611C2067.727,834.811,2067.727,844.045,2067.727,848.661L2067.727,853.278"/><path marker-end="url(#mermaid-svg-1768821843081-5y5477pba_flowchart-pointEnd)" style="fill:none;" class="edge-thickness-normal edge-pattern-solid flowchart-link LS-Classify LE-Tier2" id="L-Classify-Tier2-0" d="M1228.82,690.649L1276.336,707.554C1323.853,724.459,1418.885,758.268,1466.402,780.757C1513.918,803.245,1513.918,814.411,1513.918,824.611C1513.918,834.811,1513.918,844.045,1513.918,848.661L1513.918,853.278"/><path marker-end="url(#mermaid-svg-1768821843081-5y5477pba_flowchart-pointEnd)" style="fill:none;" class="edge-thickness-normal edge-pattern-solid flowchart-link LS-Classify LE-Tier3" id="L-Classify-Tier3-0" d="M1079.314,678.001L947.738,697.014C816.162,716.027,553.011,754.052,421.435,778.649C289.859,803.245,289.859,814.411,289.859,824.611C289.859,834.811,289.859,844.045,289.859,848.661L289.859,853.278"/><path marker-end="url(#mermaid-svg-1768821843081-5y5477pba_flowchart-pointEnd)" style="fill:none;" class="edge-thickness-normal edge-pattern-solid flowchart-link LS-Classify LE-NotXP" id="L-Classify-NotXP-0" d="M1160.391,759.078L1160.307,764.578C1160.224,770.078,1160.057,781.078,1159.974,792.161C1159.891,803.245,1159.891,814.411,1159.891,823.278C1159.891,832.145,1159.891,838.711,1159.891,841.995L1159.891,845.278"/><path marker-end="url(#mermaid-svg-1768821843081-5y5477pba_flowchart-pointEnd)" style="fill:none;" class="edge-thickness-normal edge-pattern-solid flowchart-link LS-Tier0 LE-T0_Setup" id="L-Tier0-T0_Setup-0" d="M805.668,890.578L805.668,896.078C805.668,901.578,805.668,912.578,805.668,938.629C805.668,964.68,805.668,1005.782,805.668,1026.333L805.668,1046.884"/><path marker-end="url(#mermaid-svg-1768821843081-5y5477pba_flowchart-pointEnd)" style="fill:none;" class="edge-thickness-normal edge-pattern-solid flowchart-link LS-T0_Setup LE-T0_Calc" id="L-T0_Setup-T0_Calc-0" d="M805.668,1116.184L805.668,1139.035C805.668,1161.885,805.668,1207.587,805.668,1239.138C805.668,1270.689,805.668,1288.089,805.668,1296.789L805.668,1305.489"/><path marker-end="url(#mermaid-svg-1768821843081-5y5477pba_flowchart-pointEnd)" style="fill:none;" class="edge-thickness-normal edge-pattern-solid flowchart-link LS-T0_Calc LE-T0_Check" id="L-T0_Calc-T0_Check-0" d="M805.668,1342.789L805.668,1350.956C805.668,1359.122,805.668,1375.456,805.734,1386.989C805.8,1398.523,805.932,1405.256,805.998,1408.623L806.064,1411.99"/><path marker-end="url(#mermaid-svg-1768821843081-5y5477pba_flowchart-pointEnd)" style="fill:none;" class="edge-thickness-normal edge-pattern-solid flowchart-link LS-T0_Check LE-T0_App" id="L-T0_Check-T0_App-0" d="M771.977,1532.067L762.321,1543.266C752.665,1554.464,733.352,1576.861,723.695,1606.18C714.039,1635.499,714.039,1671.74,714.039,1689.861L714.039,1707.981"/><path marker-end="url(#mermaid-svg-1768821843081-5y5477pba_flowchart-pointEnd)" style="fill:none;" class="edge-thickness-normal edge-pattern-solid flowchart-link LS-T0_Check LE-T0_Rej" id="L-T0_Check-T0_Rej-0" d="M840.359,1532.067L849.848,1543.266C859.338,1554.464,878.317,1576.861,887.807,1606.18C897.297,1635.499,897.297,1671.74,897.297,1689.861L897.297,1707.981"/><path marker-end="url(#mermaid-svg-1768821843081-5y5477pba_flowchart-pointEnd)" style="fill:none;" class="edge-thickness-normal edge-pattern-solid flowchart-link LS-Tier1 LE-T1_Gate" id="L-Tier1-T1_Gate-0" d="M2067.727,890.578L2067.727,896.078C2067.727,901.578,2067.727,912.578,2067.804,928.854C2067.881,945.131,2068.035,966.683,2068.112,977.459L2068.189,988.235"/><path marker-end="url(#mermaid-svg-1768821843081-5y5477pba_flowchart-pointEnd)" style="fill:none;" class="edge-thickness-normal edge-pattern-solid flowchart-link LS-T1_Gate LE-T1_Wait" id="L-T1_Gate-T1_Wait-0" d="M2033.118,1140.724L2021.23,1159.485C2009.341,1178.246,1985.563,1215.767,1973.674,1243.228C1961.785,1270.689,1961.785,1288.089,1961.785,1296.789L1961.785,1305.489"/><path marker-end="url(#mermaid-svg-1768821843081-5y5477pba_flowchart-pointEnd)" style="fill:none;" class="edge-thickness-normal edge-pattern-solid flowchart-link LS-T1_Gate LE-T1_Setup" id="L-T1_Gate-T1_Setup-0" d="M2103.335,1140.724L2115.057,1159.485C2126.779,1178.246,2150.224,1215.767,2161.946,1239.228C2173.668,1262.689,2173.668,1272.089,2173.668,1276.789L2173.668,1281.489"/><path marker-end="url(#mermaid-svg-1768821843081-5y5477pba_flowchart-pointEnd)" style="fill:none;" class="edge-thickness-normal edge-pattern-solid flowchart-link LS-T1_Setup LE-T1_Calc" id="L-T1_Setup-T1_Calc-0" d="M2173.668,1366.789L2173.668,1370.956C2173.668,1375.122,2173.668,1383.456,2173.668,1400.653C2173.668,1417.851,2173.668,1443.912,2173.668,1456.943L2173.668,1469.973"/><path marker-end="url(#mermaid-svg-1768821843081-5y5477pba_flowchart-pointEnd)" style="fill:none;" class="edge-thickness-normal edge-pattern-solid flowchart-link LS-T1_Calc LE-T1_Check" id="L-T1_Calc-T1_Check-0" d="M2173.668,1507.273L2173.668,1522.604C2173.668,1537.935,2173.668,1568.596,2173.741,1590.194C2173.814,1611.791,2173.96,1624.324,2174.033,1630.59L2174.106,1636.857"/><path marker-end="url(#mermaid-svg-1768821843081-5y5477pba_flowchart-pointEnd)" style="fill:none;" class="edge-thickness-normal edge-pattern-solid flowchart-link LS-T1_Check LE-T1_App" id="L-T1_Check-T1_App-0" d="M2130.466,1773.705L2117.515,1786.555C2104.563,1799.405,2078.661,1825.105,2065.709,1843.538C2052.758,1861.971,2052.758,1873.138,2052.758,1883.421C2052.758,1893.705,2052.758,1903.105,2052.758,1907.805L2052.758,1912.505"/><path marker-end="url(#mermaid-svg-1768821843081-5y5477pba_flowchart-pointEnd)" style="fill:none;" class="edge-thickness-normal edge-pattern-solid flowchart-link LS-T1_Check LE-T1_Rej" id="L-T1_Check-T1_Rej-0" d="M2209.316,1782.259L2216.94,1793.683C2224.564,1805.107,2239.812,1827.956,2247.436,1844.964C2255.061,1861.971,2255.061,1873.138,2255.061,1883.421C2255.061,1893.705,2255.061,1903.105,2255.061,1907.805L2255.061,1912.505"/><path marker-end="url(#mermaid-svg-1768821843081-5y5477pba_flowchart-pointEnd)" style="fill:none;" class="edge-thickness-normal edge-pattern-solid flowchart-link LS-Tier2 LE-T2_Gate" id="L-Tier2-T2_Gate-0" d="M1513.918,890.578L1513.918,896.078C1513.918,901.578,1513.918,912.578,1513.996,929.966C1514.073,947.354,1514.228,971.131,1514.306,983.019L1514.383,994.907"/><path marker-end="url(#mermaid-svg-1768821843081-5y5477pba_flowchart-pointEnd)" style="fill:none;" class="edge-thickness-normal edge-pattern-solid flowchart-link LS-T2_Gate LE-T2_Wait" id="L-T2_Gate-T2_Wait-0" d="M1483.353,1138.095L1472.054,1157.294C1460.756,1176.493,1438.159,1214.891,1426.861,1242.79C1415.563,1270.689,1415.563,1288.089,1415.563,1296.789L1415.563,1305.489"/><path marker-end="url(#mermaid-svg-1768821843081-5y5477pba_flowchart-pointEnd)" style="fill:none;" class="edge-thickness-normal edge-pattern-solid flowchart-link LS-T2_Gate LE-T2_Setup" id="L-T2_Gate-T2_Setup-0" d="M1545.483,1138.095L1556.615,1157.294C1567.747,1176.493,1590.01,1214.891,1601.142,1240.123C1612.273,1265.356,1612.273,1277.422,1612.273,1283.456L1612.273,1289.489"/><path marker-end="url(#mermaid-svg-1768821843081-5y5477pba_flowchart-pointEnd)" style="fill:none;" class="edge-thickness-normal edge-pattern-solid flowchart-link LS-T2_Setup LE-T2_Calc" id="L-T2_Setup-T2_Calc-0" d="M1612.273,1358.789L1612.273,1364.289C1612.273,1369.789,1612.273,1380.789,1612.273,1399.236C1612.273,1417.684,1612.273,1443.579,1612.273,1456.526L1612.273,1469.473"/><path marker-end="url(#mermaid-svg-1768821843081-5y5477pba_flowchart-pointEnd)" style="fill:none;" class="edge-thickness-normal edge-pattern-solid flowchart-link LS-T2_Calc LE-T2_Check" id="L-T2_Calc-T2_Check-0" d="M1612.273,1507.773L1612.273,1523.021C1612.273,1538.268,1612.273,1568.763,1612.345,1589.535C1612.417,1610.308,1612.561,1621.358,1612.633,1626.883L1612.705,1632.407"/><path marker-end="url(#mermaid-svg-1768821843081-5y5477pba_flowchart-pointEnd)" style="fill:none;" class="edge-thickness-normal edge-pattern-solid flowchart-link LS-T2_Check LE-T2_App" id="L-T2_Check-T2_App-0" d="M1568.344,1777.426L1556.778,1789.655C1545.212,1801.885,1522.081,1826.345,1510.515,1844.158C1498.949,1861.971,1498.949,1873.138,1498.949,1883.421C1498.949,1893.705,1498.949,1903.105,1498.949,1907.805L1498.949,1912.505"/><path marker-end="url(#mermaid-svg-1768821843081-5y5477pba_flowchart-pointEnd)" style="fill:none;" class="edge-thickness-normal edge-pattern-solid flowchart-link LS-T2_Check LE-T2_Rej" id="L-T2_Check-T2_Rej-0" d="M1649.706,1784.923L1657.032,1795.903C1664.359,1806.884,1679.013,1828.844,1686.339,1845.408C1693.666,1861.971,1693.666,1873.138,1693.666,1883.421C1693.666,1893.705,1693.666,1903.105,1693.666,1907.805L1693.666,1912.505"/><path marker-end="url(#mermaid-svg-1768821843081-5y5477pba_flowchart-pointEnd)" style="fill:none;" class="edge-thickness-normal edge-pattern-solid flowchart-link LS-Tier3 LE-T3_Gate" id="L-Tier3-T3_Gate-0" d="M289.859,890.578L289.859,896.078C289.859,901.578,289.859,912.578,289.925,921.445C289.991,930.312,290.123,937.045,290.189,940.412L290.255,943.779"/><path marker-end="url(#mermaid-svg-1768821843081-5y5477pba_flowchart-pointEnd)" style="fill:none;" class="edge-thickness-normal edge-pattern-solid flowchart-link LS-T3_Gate LE-T3_Wait" id="L-T3_Gate-T3_Wait-0" d="M227.968,1157.898L214.265,1173.796C200.563,1189.695,173.157,1221.492,159.455,1246.091C145.752,1270.689,145.752,1288.089,145.752,1296.789L145.752,1305.489"/><path marker-end="url(#mermaid-svg-1768821843081-5y5477pba_flowchart-pointEnd)" style="fill:none;" class="edge-thickness-normal edge-pattern-solid flowchart-link LS-T3_Gate LE-T3_Setup" id="L-T3_Gate-T3_Setup-0" d="M322.534,1188.115L325.855,1198.977C329.177,1209.84,335.82,1231.564,339.141,1248.46C342.463,1265.356,342.463,1277.422,342.463,1283.456L342.463,1289.489"/><path marker-end="url(#mermaid-svg-1768821843081-5y5477pba_flowchart-pointEnd)" style="fill:none;" class="edge-thickness-normal edge-pattern-solid flowchart-link LS-T3_Setup LE-T3_Calc" id="L-T3_Setup-T3_Calc-0" d="M342.463,1358.789L342.463,1364.289C342.463,1369.789,342.463,1380.789,342.463,1399.236C342.463,1417.684,342.463,1443.579,342.463,1456.526L342.463,1469.473"/><path marker-end="url(#mermaid-svg-1768821843081-5y5477pba_flowchart-pointEnd)" style="fill:none;" class="edge-thickness-normal edge-pattern-solid flowchart-link LS-T3_Calc LE-T3_Check" id="L-T3_Calc-T3_Check-0" d="M342.463,1507.773L342.463,1523.021C342.463,1538.268,342.463,1568.763,342.533,1588.794C342.604,1608.825,342.744,1618.392,342.815,1623.175L342.885,1627.958"/><path marker-end="url(#mermaid-svg-1768821843081-5y5477pba_flowchart-pointEnd)" style="fill:none;" class="edge-thickness-normal edge-pattern-solid flowchart-link LS-T3_Check LE-T3_App" id="L-T3_Check-T3_App-0" d="M296.386,1779.728L285.178,1791.574C273.97,1803.42,251.554,1827.112,240.347,1844.542C229.139,1861.971,229.139,1873.138,229.139,1883.421C229.139,1893.705,229.139,1903.105,229.139,1907.805L229.139,1912.505"/><path marker-end="url(#mermaid-svg-1768821843081-5y5477pba_flowchart-pointEnd)" style="fill:none;" class="edge-thickness-normal edge-pattern-solid flowchart-link LS-T3_Check LE-T3_Rej" id="L-T3_Check-T3_Rej-0" d="M384.629,1784.639L392.985,1795.666C401.34,1806.694,418.052,1828.749,426.408,1845.36C434.764,1861.971,434.764,1873.138,434.764,1883.421C434.764,1893.705,434.764,1903.105,434.764,1907.805L434.764,1912.505"/></g><g class="edgeLabels"><g class="edgeLabel"><g transform="translate(0, 0)" class="label"><rect height="0" width="0" ry="0" rx="0"/><text style=""><tspan class="row" x="0" dy="1em" xml:space="preserve"/></text></g></g><g class="edgeLabel"><g transform="translate(0, 0)" class="label"><rect height="0" width="0" ry="0" rx="0"/><text style=""><tspan class="row" x="0" dy="1em" xml:space="preserve"/></text></g></g><g transform="translate(897.78125, 539.375)" class="edgeLabel"><g transform="translate(-10.27734375, -8.5)" class="label"><rect height="18.594247817993164" width="20.434303283691406" ry="0" rx="0"/><text style=""><tspan class="row" x="0" dy="1em" xml:space="preserve">No</tspan></text></g></g><g transform="translate(1159.890625, 539.375)" class="edgeLabel"><g transform="translate(-13.0546875, -8.5)" class="label"><rect height="18.594247817993164" width="26.0706844329834" ry="0" rx="0"/><text style=""><tspan class="row" x="0" dy="1em" xml:space="preserve">Yes</tspan></text></g></g><g transform="translate(805.66796875, 792.078125)" class="edgeLabel"><g transform="translate(-30.6328125, -8.5)" class="label"><rect height="18.594247817993164" width="61.18669509887695" ry="0" rx="0"/><text style=""><tspan class="row" x="0" dy="1em" xml:space="preserve">X ≤ 1.5B</tspan></text></g></g><g transform="translate(2067.7265625, 792.078125)" class="edgeLabel"><g transform="translate(-56.421875, -8.5)" class="label"><rect height="18.594247817993164" width="112.70825958251953" ry="0" rx="0"/><text style=""><tspan class="row" x="0" dy="1em" xml:space="preserve">1.5B &amp;lt; X ≤ 3B</tspan></text></g></g><g transform="translate(1513.91796875, 792.078125)" class="edgeLabel"><g transform="translate(-49.75, -8.5)" class="label"><rect height="18.594247817993164" width="99.38237762451172" ry="0" rx="0"/><text style=""><tspan class="row" x="0" dy="1em" xml:space="preserve">3B &amp;lt; X ≤ 6B</tspan></text></g></g><g transform="translate(289.859375, 792.078125)" class="edgeLabel"><g transform="translate(-54.1953125, -8.5)" class="label"><rect height="18.594247817993164" width="108.25338745117188" ry="0" rx="0"/><text style=""><tspan class="row" x="0" dy="1em" xml:space="preserve">6B &amp;lt; X ≤ 12B</tspan></text></g></g><g transform="translate(1159.890625, 792.078125)" class="edgeLabel"><g transform="translate(-28.6875, -8.5)" class="label"><rect height="18.594247817993164" width="57.31289291381836" ry="0" rx="0"/><text style=""><tspan class="row" x="0" dy="1em" xml:space="preserve">X &gt; 12B</tspan></text></g></g><g class="edgeLabel"><g transform="translate(0, 0)" class="label"><rect height="0" width="0" ry="0" rx="0"/><text style=""><tspan class="row" x="0" dy="1em" xml:space="preserve"/></text></g></g><g class="edgeLabel"><g transform="translate(0, 0)" class="label"><rect height="0" width="0" ry="0" rx="0"/><text style=""><tspan class="row" x="0" dy="1em" xml:space="preserve"/></text></g></g><g class="edgeLabel"><g transform="translate(0, 0)" class="label"><rect height="0" width="0" ry="0" rx="0"/><text style=""><tspan class="row" x="0" dy="1em" xml:space="preserve"/></text></g></g><g transform="translate(714.0390625, 1599.2578125)" class="edgeLabel"><g transform="translate(-13.0546875, -8.5)" class="label"><rect height="18.594247817993164" width="26.0706844329834" ry="0" rx="0"/><text style=""><tspan class="row" x="0" dy="1em" xml:space="preserve">Yes</tspan></text></g></g><g transform="translate(897.296875, 1599.2578125)" class="edgeLabel"><g transform="translate(-10.27734375, -8.5)" class="label"><rect height="18.594247817993164" width="20.434303283691406" ry="0" rx="0"/><text style=""><tspan class="row" x="0" dy="1em" xml:space="preserve">No</tspan></text></g></g><g class="edgeLabel"><g transform="translate(0, 0)" class="label"><rect height="0" width="0" ry="0" rx="0"/><text style=""><tspan class="row" x="0" dy="1em" xml:space="preserve"/></text></g></g><g transform="translate(1961.78515625, 1253.2890625)" class="edgeLabel"><g transform="translate(-10.27734375, -8.5)" class="label"><rect height="18.594247817993164" width="20.434303283691406" ry="0" rx="0"/><text style=""><tspan class="row" x="0" dy="1em" xml:space="preserve">No</tspan></text></g></g><g transform="translate(2173.66796875, 1253.2890625)" class="edgeLabel"><g transform="translate(-13.0546875, -8.5)" class="label"><rect height="18.594247817993164" width="26.0706844329834" ry="0" rx="0"/><text style=""><tspan class="row" x="0" dy="1em" xml:space="preserve">Yes</tspan></text></g></g><g class="edgeLabel"><g transform="translate(0, 0)" class="label"><rect height="0" width="0" ry="0" rx="0"/><text style=""><tspan class="row" x="0" dy="1em" xml:space="preserve"/></text></g></g><g class="edgeLabel"><g transform="translate(0, 0)" class="label"><rect height="0" width="0" ry="0" rx="0"/><text style=""><tspan class="row" x="0" dy="1em" xml:space="preserve"/></text></g></g><g transform="translate(2052.7578125, 1884.3046875)" class="edgeLabel"><g transform="translate(-13.0546875, -8.5)" class="label"><rect height="18.594247817993164" width="26.0706844329834" ry="0" rx="0"/><text style=""><tspan class="row" x="0" dy="1em" xml:space="preserve">Yes</tspan></text></g></g><g transform="translate(2255.060546875, 1884.3046875)" class="edgeLabel"><g transform="translate(-10.27734375, -8.5)" class="label"><rect height="18.594247817993164" width="20.434303283691406" ry="0" rx="0"/><text style=""><tspan class="row" x="0" dy="1em" xml:space="preserve">No</tspan></text></g></g><g class="edgeLabel"><g transform="translate(0, 0)" class="label"><rect height="0" width="0" ry="0" rx="0"/><text style=""><tspan class="row" x="0" dy="1em" xml:space="preserve"/></text></g></g><g transform="translate(1415.5625, 1253.2890625)" class="edgeLabel"><g transform="translate(-10.27734375, -8.5)" class="label"><rect height="18.594247817993164" width="20.434303283691406" ry="0" rx="0"/><text style=""><tspan class="row" x="0" dy="1em" xml:space="preserve">No</tspan></text></g></g><g transform="translate(1612.2734375, 1253.2890625)" class="edgeLabel"><g transform="translate(-13.0546875, -8.5)" class="label"><rect height="18.594247817993164" width="26.0706844329834" ry="0" rx="0"/><text style=""><tspan class="row" x="0" dy="1em" xml:space="preserve">Yes</tspan></text></g></g><g class="edgeLabel"><g transform="translate(0, 0)" class="label"><rect height="0" width="0" ry="0" rx="0"/><text style=""><tspan class="row" x="0" dy="1em" xml:space="preserve"/></text></g></g><g class="edgeLabel"><g transform="translate(0, 0)" class="label"><rect height="0" width="0" ry="0" rx="0"/><text style=""><tspan class="row" x="0" dy="1em" xml:space="preserve"/></text></g></g><g transform="translate(1498.94921875, 1884.3046875)" class="edgeLabel"><g transform="translate(-13.0546875, -8.5)" class="label"><rect height="18.594247817993164" width="26.0706844329834" ry="0" rx="0"/><text style=""><tspan class="row" x="0" dy="1em" xml:space="preserve">Yes</tspan></text></g></g><g transform="translate(1693.666015625, 1884.3046875)" class="edgeLabel"><g transform="translate(-10.27734375, -8.5)" class="label"><rect height="18.594247817993164" width="20.434303283691406" ry="0" rx="0"/><text style=""><tspan class="row" x="0" dy="1em" xml:space="preserve">No</tspan></text></g></g><g class="edgeLabel"><g transform="translate(0, 0)" class="label"><rect height="0" width="0" ry="0" rx="0"/><text style=""><tspan class="row" x="0" dy="1em" xml:space="preserve"/></text></g></g><g transform="translate(145.751953125, 1253.2890625)" class="edgeLabel"><g transform="translate(-10.27734375, -8.5)" class="label"><rect height="18.594247817993164" width="20.434303283691406" ry="0" rx="0"/><text style=""><tspan class="row" x="0" dy="1em" xml:space="preserve">No</tspan></text></g></g><g transform="translate(342.462890625, 1253.2890625)" class="edgeLabel"><g transform="translate(-13.0546875, -8.5)" class="label"><rect height="18.594247817993164" width="26.0706844329834" ry="0" rx="0"/><text style=""><tspan class="row" x="0" dy="1em" xml:space="preserve">Yes</tspan></text></g></g><g class="edgeLabel"><g transform="translate(0, 0)" class="label"><rect height="0" width="0" ry="0" rx="0"/><text style=""><tspan class="row" x="0" dy="1em" xml:space="preserve"/></text></g></g><g class="edgeLabel"><g transform="translate(0, 0)" class="label"><rect height="0" width="0" ry="0" rx="0"/><text style=""><tspan class="row" x="0" dy="1em" xml:space="preserve"/></text></g></g><g transform="translate(229.138671875, 1884.3046875)" class="edgeLabel"><g transform="translate(-13.0546875, -8.5)" class="label"><rect height="18.594247817993164" width="26.0706844329834" ry="0" rx="0"/><text style=""><tspan class="row" x="0" dy="1em" xml:space="preserve">Yes</tspan></text></g></g><g transform="translate(434.763671875, 1884.3046875)" class="edgeLabel"><g transform="translate(-10.27734375, -8.5)" class="label"><rect height="18.594247817993164" width="20.434303283691406" ry="0" rx="0"/><text style=""><tspan class="row" x="0" dy="1em" xml:space="preserve">No</tspan></text></g></g></g><g class="nodes"><g transform="translate(289.859375, 1084.18359375)" id="flowchart-T3_Gate-71" class="node default decision flowchart-label"><polygon style="" transform="translate(-135.60546875,135.60546875)" class="label-container" points="135.60546875,0 271.2109375,-135.60546875 135.60546875,-271.2109375 0,-135.60546875"/><g transform="translate(0, -17)" style="" class="label"><rect/><text style=""><tspan class="row" x="0" dy="1em" xml:space="preserve">Profit Gate:</tspan><tspan class="row" x="0" dy="1em" xml:space="preserve">VI_used ≥ MAX(1B, 0.25*X)?</tspan></text></g></g><g transform="translate(289.859375, 874.578125)" id="flowchart-Tier3-29" class="node default process flowchart-label"><rect height="32" width="130.90625" y="-16" x="-65.453125" ry="0" rx="0" style="" class="basic label-container"/><g transform="translate(0, -8.5)" style="" class="label"><rect/><text style=""><tspan class="row" x="0" dy="1em" xml:space="preserve">Tier 3: Large XP</tspan></text></g></g><g transform="translate(145.751953125, 1326.7890625)" id="flowchart-T3_Wait-73" class="node default failure flowchart-label"><rect height="32" width="171.796875" y="-16" x="-85.8984375" ry="16" rx="16" style=""/><g transform="translate(0, -8.5)" style="" class="label"><rect/><text style=""><tspan class="row" x="0" dy="1em" xml:space="preserve">WAIT: Accumulate VI</tspan></text></g></g><g transform="translate(342.462890625, 1326.7890625)" id="flowchart-T3_Setup-75" class="node default default flowchart-label"><rect height="64" width="121.625" y="-32" x="-60.8125" ry="0" rx="0" style="" class="basic label-container"/><g transform="translate(0, -24.5)" style="" class="label"><rect/><text style=""><tspan class="row" x="0" dy="1em" xml:space="preserve">Set Funding:</tspan><tspan class="row" x="0" dy="1em" xml:space="preserve">Max ΔB ≤ 0.5B</tspan><tspan class="row" x="0" dy="1em" xml:space="preserve">Max v ≤ 0.5V</tspan></text></g></g><g transform="translate(342.462890625, 1491.2734375)" id="flowchart-T3_Calc-77" class="node default default flowchart-label"><rect height="33" width="244.734375" y="-16.5" x="-122.3671875" ry="0" rx="0" style="" class="basic label-container"/><g transform="translate(0, -9)" style="" class="label"><rect/><text style=""><tspan class="row" x="0" dy="1em" xml:space="preserve">Calc T = (X - VI_used) / (ΔB + v)</tspan></text></g></g><g transform="translate(342.462890625, 1729.28125)" id="flowchart-T3_Check-79" class="node default decision flowchart-label"><polygon style="" transform="translate(-96.5234375,96.5234375)" class="label-container" points="96.5234375,0 193.046875,-96.5234375 96.5234375,-193.046875 0,-96.5234375"/><g transform="translate(0, -8.5)" style="" class="label"><rect/><text style=""><tspan class="row" x="0" dy="1em" xml:space="preserve">12 ≤ T ≤ 24 Months?</tspan></text></g></g><g transform="translate(229.138671875, 1933.8046875)" id="flowchart-T3_App-81" class="node default success flowchart-label"><rect height="32" width="111.921875" y="-16" x="-55.9609375" ry="16" rx="16" style=""/><g transform="translate(0, -8.5)" style="" class="label"><rect/><text style=""><tspan class="row" x="0" dy="1em" xml:space="preserve">APPROVED</tspan></text></g></g><g transform="translate(434.763671875, 1933.8046875)" id="flowchart-T3_Rej-83" class="node default failure flowchart-label"><rect height="32" width="157.28125" y="-16" x="-78.640625" ry="16" rx="16" style=""/><g transform="translate(0, -8.5)" style="" class="label"><rect/><text style=""><tspan class="row" x="0" dy="1em" xml:space="preserve">Reject / Not Ready</tspan></text></g></g><g transform="translate(1513.91796875, 1084.18359375)" id="flowchart-T2_Gate-57" class="node default decision flowchart-label"><polygon style="" transform="translate(-84.4765625,84.4765625)" class="label-container" points="84.4765625,0 168.953125,-84.4765625 84.4765625,-168.953125 0,-84.4765625"/><g transform="translate(0, -17)" style="" class="label"><rect/><text style=""><tspan class="row" x="0" dy="1em" xml:space="preserve">Profit Gate:</tspan><tspan class="row" x="0" dy="1em" xml:space="preserve">VI_used ≥ 1B?</tspan></text></g></g><g transform="translate(1513.91796875, 874.578125)" id="flowchart-Tier2-27" class="node default process flowchart-label"><rect height="32" width="156.234375" y="-16" x="-78.1171875" ry="0" rx="0" style="" class="basic label-container"/><g transform="translate(0, -8.5)" style="" class="label"><rect/><text style=""><tspan class="row" x="0" dy="1em" xml:space="preserve">Tier 2: Medium+ XP</tspan></text></g></g><g transform="translate(1415.5625, 1326.7890625)" id="flowchart-T2_Wait-59" class="node default failure flowchart-label"><rect height="32" width="171.796875" y="-16" x="-85.8984375" ry="16" rx="16" style=""/><g transform="translate(0, -8.5)" style="" class="label"><rect/><text style=""><tspan class="row" x="0" dy="1em" xml:space="preserve">WAIT: Accumulate VI</tspan></text></g></g><g transform="translate(1612.2734375, 1326.7890625)" id="flowchart-T2_Setup-61" class="node default default flowchart-label"><rect height="64" width="121.625" y="-32" x="-60.8125" ry="0" rx="0" style="" class="basic label-container"/><g transform="translate(0, -24.5)" style="" class="label"><rect/><text style=""><tspan class="row" x="0" dy="1em" xml:space="preserve">Set Funding:</tspan><tspan class="row" x="0" dy="1em" xml:space="preserve">Max ΔB ≤ 0.5B</tspan><tspan class="row" x="0" dy="1em" xml:space="preserve">Max v ≤ 0.5V</tspan></text></g></g><g transform="translate(1612.2734375, 1491.2734375)" id="flowchart-T2_Calc-63" class="node default default flowchart-label"><rect height="33" width="244.734375" y="-16.5" x="-122.3671875" ry="0" rx="0" style="" class="basic label-container"/><g transform="translate(0, -9)" style="" class="label"><rect/><text style=""><tspan class="row" x="0" dy="1em" xml:space="preserve">Calc T = (X - VI_used) / (ΔB + v)</tspan></text></g></g><g transform="translate(1612.2734375, 1729.28125)" id="flowchart-T2_Check-65" class="node default decision flowchart-label"><polygon style="" transform="translate(-92.07421875,92.07421875)" class="label-container" points="92.07421875,0 184.1484375,-92.07421875 92.07421875,-184.1484375 0,-92.07421875"/><g transform="translate(0, -8.5)" style="" class="label"><rect/><text style=""><tspan class="row" x="0" dy="1em" xml:space="preserve">6 ≤ T ≤ 12 Months?</tspan></text></g></g><g transform="translate(1498.94921875, 1933.8046875)" id="flowchart-T2_App-67" class="node default success flowchart-label"><rect height="32" width="111.921875" y="-16" x="-55.9609375" ry="16" rx="16" style=""/><g transform="translate(0, -8.5)" style="" class="label"><rect/><text style=""><tspan class="row" x="0" dy="1em" xml:space="preserve">APPROVED</tspan></text></g></g><g transform="translate(1693.666015625, 1933.8046875)" id="flowchart-T2_Rej-69" class="node default failure flowchart-label"><rect height="32" width="113.6484375" y="-16" x="-56.82421875" ry="16" rx="16" style=""/><g transform="translate(0, -8.5)" style="" class="label"><rect/><text style=""><tspan class="row" x="0" dy="1em" xml:space="preserve">Reject / Wait</tspan></text></g></g><g transform="translate(2067.7265625, 1084.18359375)" id="flowchart-T1_Gate-43" class="node default decision flowchart-label"><polygon style="" transform="translate(-91.1484375,91.1484375)" class="label-container" points="91.1484375,0 182.296875,-91.1484375 91.1484375,-182.296875 0,-91.1484375"/><g transform="translate(0, -17)" style="" class="label"><rect/><text style=""><tspan class="row" x="0" dy="1em" xml:space="preserve">Profit Gate:</tspan><tspan class="row" x="0" dy="1em" xml:space="preserve">VI_used ≥ 0.5B?</tspan></text></g></g><g transform="translate(2067.7265625, 874.578125)" id="flowchart-Tier1-25" class="node default process flowchart-label"><rect height="32" width="146.890625" y="-16" x="-73.4453125" ry="0" rx="0" style="" class="basic label-container"/><g transform="translate(0, -8.5)" style="" class="label"><rect/><text style=""><tspan class="row" x="0" dy="1em" xml:space="preserve">Tier 1: Medium XP</tspan></text></g></g><g transform="translate(1961.78515625, 1326.7890625)" id="flowchart-T1_Wait-45" class="node default failure flowchart-label"><rect height="32" width="171.796875" y="-16" x="-85.8984375" ry="16" rx="16" style=""/><g transform="translate(0, -8.5)" style="" class="label"><rect/><text style=""><tspan class="row" x="0" dy="1em" xml:space="preserve">WAIT: Accumulate VI</tspan></text></g></g><g transform="translate(2173.66796875, 1326.7890625)" id="flowchart-T1_Setup-47" class="node default default flowchart-label"><rect height="80" width="151.96875" y="-40" x="-75.984375" ry="0" rx="0" style="" class="basic label-container"/><g transform="translate(0, -32.5)" style="" class="label"><rect/><text style=""><tspan class="row" x="0" dy="1em" xml:space="preserve">Set Funding:</tspan><tspan class="row" x="0" dy="1em" xml:space="preserve">R = X - 0.5B</tspan><tspan class="row" x="0" dy="1em" xml:space="preserve">Fund R via ΔB only</tspan><tspan class="row" x="0" dy="1em" xml:space="preserve">0.25B ≤ ΔB ≤ 0.5B</tspan></text></g></g><g transform="translate(2173.66796875, 1491.2734375)" id="flowchart-T1_Calc-49" class="node default default flowchart-label"><rect height="32" width="125.140625" y="-16" x="-62.5703125" ry="0" rx="0" style="" class="basic label-container"/><g transform="translate(0, -8.5)" style="" class="label"><rect/><text style=""><tspan class="row" x="0" dy="1em" xml:space="preserve">Calc T = R / ΔB</tspan></text></g></g><g transform="translate(2173.66796875, 1729.28125)" id="flowchart-T1_Check-51" class="node default decision flowchart-label"><polygon style="" transform="translate(-87.625,87.625)" class="label-container" points="87.625,0 175.25,-87.625 87.625,-175.25 0,-87.625"/><g transform="translate(0, -8.5)" style="" class="label"><rect/><text style=""><tspan class="row" x="0" dy="1em" xml:space="preserve">3 ≤ T ≤ 6 Months?</tspan></text></g></g><g transform="translate(2052.7578125, 1933.8046875)" id="flowchart-T1_App-53" class="node default success flowchart-label"><rect height="32" width="111.921875" y="-16" x="-55.9609375" ry="16" rx="16" style=""/><g transform="translate(0, -8.5)" style="" class="label"><rect/><text style=""><tspan class="row" x="0" dy="1em" xml:space="preserve">APPROVED</tspan></text></g></g><g transform="translate(2255.060546875, 1933.8046875)" id="flowchart-T1_Rej-55" class="node default failure flowchart-label"><rect height="32" width="113.6484375" y="-16" x="-56.82421875" ry="16" rx="16" style=""/><g transform="translate(0, -8.5)" style="" class="label"><rect/><text style=""><tspan class="row" x="0" dy="1em" xml:space="preserve">Reject / Wait</tspan></text></g></g><g transform="translate(805.66796875, 1084.18359375)" id="flowchart-T0_Setup-33" class="node default default flowchart-label"><rect height="64" width="216.6875" y="-32" x="-108.34375" ry="0" rx="0" style="" class="basic label-container"/><g transform="translate(0, -24.5)" style="" class="label"><rect/><text style=""><tspan class="row" x="0" dy="1em" xml:space="preserve">Set Funding:</tspan><tspan class="row" x="0" dy="1em" xml:space="preserve">ΔB only (0.25B ≤ ΔB ≤ 0.5B)</tspan><tspan class="row" x="0" dy="1em" xml:space="preserve">No VI, No v</tspan></text></g></g><g transform="translate(805.66796875, 874.578125)" id="flowchart-Tier0-23" class="node default process flowchart-label"><rect height="32" width="130" y="-16" x="-65" ry="0" rx="0" style="" class="basic label-container"/><g transform="translate(0, -8.5)" style="" class="label"><rect/><text style=""><tspan class="row" x="0" dy="1em" xml:space="preserve">Tier 0: Small XP</tspan></text></g></g><g transform="translate(805.66796875, 1326.7890625)" id="flowchart-T0_Calc-35" class="node default default flowchart-label"><rect height="32" width="124.25" y="-16" x="-62.125" ry="0" rx="0" style="" class="basic label-container"/><g transform="translate(0, -8.5)" style="" class="label"><rect/><text style=""><tspan class="row" x="0" dy="1em" xml:space="preserve">Calc T = X / ΔB</tspan></text></g></g><g transform="translate(805.66796875, 1491.2734375)" id="flowchart-T0_Check-37" class="node default decision flowchart-label"><polygon style="" transform="translate(-74.484375,74.484375)" class="label-container" points="74.484375,0 148.96875,-74.484375 74.484375,-148.96875 0,-74.484375"/><g transform="translate(0, -8.5)" style="" class="label"><rect/><text style=""><tspan class="row" x="0" dy="1em" xml:space="preserve">T ≤ 3 Months?</tspan></text></g></g><g transform="translate(714.0390625, 1729.28125)" id="flowchart-T0_App-39" class="node default success flowchart-label"><rect height="32" width="111.921875" y="-16" x="-55.9609375" ry="16" rx="16" style=""/><g transform="translate(0, -8.5)" style="" class="label"><rect/><text style=""><tspan class="row" x="0" dy="1em" xml:space="preserve">APPROVED</tspan></text></g></g><g transform="translate(897.296875, 1729.28125)" id="flowchart-T0_Rej-41" class="node default failure flowchart-label"><rect height="32" width="154.59375" y="-16" x="-77.296875" ry="16" rx="16" style=""/><g transform="translate(0, -8.5)" style="" class="label"><rect/><text style=""><tspan class="row" x="0" dy="1em" xml:space="preserve">Reject / Reclassify</tspan></text></g></g><g transform="translate(1028.8359375, 16)" id="flowchart-Start-14" class="node default startend flowchart-label"><rect height="32" width="167.96875" y="-16" x="-83.984375" ry="16" rx="16" style=""/><g transform="translate(0, -8.5)" style="" class="label"><rect/><text style=""><tspan class="row" x="0" dy="1em" xml:space="preserve">Start: Define Life XP</tspan></text></g></g><g transform="translate(1028.8359375, 130)" id="flowchart-Input-15" class="node default startend flowchart-label"><rect height="96" width="183.1875" y="-48" x="-91.59375" ry="0" rx="0" style="" class="basic label-container"/><g transform="translate(0, -40.5)" style="" class="label"><rect/><text style=""><tspan class="row" x="0" dy="1em" xml:space="preserve">Input Variables:</tspan><tspan class="row" x="0" dy="1em" xml:space="preserve">X = Cost</tspan><tspan class="row" x="0" dy="1em" xml:space="preserve">B = Monthly Budget</tspan><tspan class="row" x="0" dy="1em" xml:space="preserve">V = Monthly Investment</tspan><tspan class="row" x="0" dy="1em" xml:space="preserve">VI = Realized Profits</tspan></text></g></g><g transform="translate(1028.8359375, 366.9375)" id="flowchart-Constraints-17" class="node default default flowchart-label"><polygon style="" transform="translate(-138.9375,138.9375)" class="label-container" points="138.9375,0 277.875,-138.9375 138.9375,-277.875 0,-138.9375"/><g transform="translate(0, -32.5)" style="" class="label"><rect/><text style=""><tspan class="row" x="0" dy="1em" xml:space="preserve">Global Constraints Check</tspan><tspan class="row" x="0" dy="1em" xml:space="preserve">1. No Loans/EMIs?</tspan><tspan class="row" x="0" dy="1em" xml:space="preserve">2. No Emergency Fund?</tspan><tspan class="row" x="0" dy="1em" xml:space="preserve">3. Principal V untouched?</tspan></text></g></g><g transform="translate(897.78125, 665.7265625)" id="flowchart-Stop_Global-19" class="node default failure flowchart-label"><rect height="32" width="238.515625" y="-16" x="-119.2578125" ry="16" rx="16" style=""/><g transform="translate(0, -8.5)" style="" class="label"><rect/><text style=""><tspan class="row" x="0" dy="1em" xml:space="preserve">STOP: Violation of Hard Rules</tspan></text></g></g><g transform="translate(1159.890625, 665.7265625)" id="flowchart-Classify-21" class="node default decision flowchart-label"><polygon style="" transform="translate(-92.8515625,92.8515625)" class="label-container" points="92.8515625,0 185.703125,-92.8515625 92.8515625,-185.703125 0,-92.8515625"/><g transform="translate(0, -8.5)" style="" class="label"><rect/><text style=""><tspan class="row" x="0" dy="1em" xml:space="preserve">Classify by Size (X)</tspan></text></g></g><g transform="translate(1159.890625, 874.578125)" id="flowchart-NotXP-31" class="node default failure flowchart-label"><rect height="48" width="199.546875" y="-24" x="-99.7734375" ry="24" rx="24" style=""/><g transform="translate(0, -16.5)" style="" class="label"><rect/><text style=""><tspan class="row" x="0" dy="1em" xml:space="preserve">STOP: Not a Life XP</tspan><tspan class="row" x="0" dy="1em" xml:space="preserve">(Life Planning Required)</tspan></text></g></g></g></g></g></svg>